<?xml version="1.0" standalone="no"?>
<!DOCTYPE svg PUBLIC "-//W3C//DTD SVG 20010904//EN"
 "http://www.w3.org/TR/2001/REC-SVG-20010904/DTD/svg10.dtd">
<svg version="1.0" xmlns="http://www.w3.org/2000/svg"
 width="512.000000pt" height="512.000000pt" viewBox="0 0 512.000000 512.000000"
 preserveAspectRatio="xMidYMid meet">
<metadata>
Created by potrace 1.11, written by Peter Selinger 2001-2013
</metadata>
<g transform="translate(0.000000,512.000000) scale(0.100000,-0.100000)"
fill="#000000" stroke="none">
<path d="M2442 3953 l-83 -26 7 -336 c11 -519 11 -479 -6 -473 -8 3 -19 8 -25
12 -26 18 -160 58 -225 68 -19 3 -100 6 -180 6 -131 0 -194 -4 -270 -19 -127
-25 -197 -44 -365 -100 -146 -49 -294 -88 -433 -114 -116 -23 -311 -25 -376
-6 -25 8 -48 14 -51 15 -3 0 -6 0 -7 1 -2 0 -10 2 -18 4 -8 1 -47 13 -87 25
-106 32 -142 12 -104 -60 11 -21 17 -41 13 -46 -4 -4 -2 -4 5 0 13 7 53 -27
53 -45 0 -5 5 -7 10 -4 6 3 10 1 10 -4 0 -6 7 -11 15 -11 7 0 19 -8 24 -17 6
-10 11 -14 11 -10 0 4 9 3 20 -3 11 -6 18 -15 15 -20 -3 -6 1 -7 9 -4 9 3 16
1 16 -6 0 -6 4 -9 8 -6 5 3 34 -8 65 -23 31 -15 54 -24 51 -20 -3 5 2 6 10 3
9 -3 14 -10 11 -14 -3 -5 5 -6 17 -2 15 4 19 2 13 -7 -5 -10 -2 -11 14 -6 11
3 21 3 21 -2 0 -5 12 -10 26 -11 15 -1 34 -8 42 -15 13 -10 14 -9 7 3 -8 13
-6 13 8 2 9 -8 21 -11 27 -7 5 3 10 -2 10 -12 0 -15 2 -15 9 -4 8 13 12 13 27
0 11 -9 15 -9 10 -1 -4 6 -2 12 3 12 6 0 11 -4 11 -10 0 -5 16 -9 36 -8 21 1
39 -4 45 -13 5 -8 9 -9 9 -3 0 6 7 11 15 11 8 0 12 -4 9 -9 -3 -5 9 -6 26 -3
20 4 29 2 25 -5 -3 -5 -1 -10 4 -10 6 0 11 5 11 12 0 9 3 9 12 0 15 -15 32
-16 22 -1 -4 8 -1 8 12 1 11 -5 25 -7 33 -4 9 3 11 0 6 -8 -6 -9 -3 -9 13 -1
28 15 53 15 32 0 -12 -9 -11 -10 5 -4 11 4 26 10 34 13 10 4 12 1 6 -9 -7 -12
-6 -12 7 -1 11 9 18 10 23 2 4 -7 12 -7 25 0 25 13 33 13 24 -2 -5 -7 -3 -8 7
-2 17 10 71 15 65 6 -2 -4 6 -7 19 -7 14 0 20 4 15 10 -10 12 89 13 108 1 8
-4 11 -3 10 4 -2 7 5 14 15 15 9 2 17 -2 17 -8 0 -8 3 -7 9 2 6 9 11 10 15 2
5 -8 13 -8 27 -1 11 6 17 15 14 20 -3 6 1 7 9 4 9 -3 13 -11 9 -18 -3 -6 2 -3
13 6 16 14 23 15 34 5 10 -9 11 -9 6 1 -4 6 -3 12 3 12 5 0 12 -6 14 -12 4 -9
6 -7 6 3 1 10 9 15 24 14 12 -1 30 3 40 9 13 8 20 8 27 -4 8 -13 10 -12 10 4
0 11 3 16 6 13 4 -3 15 -2 25 4 14 7 19 6 19 -3 1 -9 5 -7 14 4 10 14 15 15
25 5 10 -9 11 -8 6 8 -5 15 -4 16 3 6 7 -10 -1 -28 -34 -68 -24 -29 -51 -68
-60 -86 -9 -17 -20 -34 -24 -37 -12 -9 -68 -153 -85 -219 -62 -240 -24 -520
95 -711 19 -30 35 -57 35 -60 0 -2 10 -15 22 -28 13 -14 20 -29 16 -35 -3 -5
-1 -7 5 -3 12 7 55 -48 44 -58 -4 -4 -2 -7 3 -6 21 5 36 0 30 -10 -3 -5 1 -10
10 -10 9 0 14 -4 11 -9 -3 -5 4 -11 15 -14 13 -4 18 -10 13 -18 -4 -7 -3 -10
4 -5 6 3 17 -3 25 -14 7 -11 17 -17 20 -13 4 3 7 0 7 -7 0 -7 3 -11 6 -7 3 3
15 -3 27 -14 11 -10 27 -19 34 -19 7 0 13 -4 13 -10 0 -5 8 -10 19 -10 22 0
44 -23 33 -36 -4 -4 0 -3 10 4 11 9 17 9 20 2 2 -6 12 -13 23 -14 11 -2 19
-10 17 -17 -3 -11 -1 -11 9 -2 10 10 16 10 27 1 12 -11 25 -14 70 -20 6 -1 12
-4 12 -8 0 -4 10 -6 23 -6 12 1 27 0 32 -3 12 -7 48 -11 88 -11 19 0 26 -3 21
-11 -5 -8 -3 -9 6 -4 18 11 62 12 84 2 13 -6 16 -6 12 2 -8 12 28 10 40 -2 4
-4 14 -2 21 5 19 15 54 18 46 4 -4 -6 0 -5 8 1 12 10 18 10 29 0 10 -9 11 -9
6 1 -7 12 2 16 42 14 12 -1 22 4 22 10 0 5 7 8 15 4 8 -3 15 -1 15 5 0 6 5 7
10 4 6 -3 10 0 10 7 0 9 3 9 10 -2 8 -13 14 -8 12 11 -1 3 5 6 13 6 8 0 12 -5
9 -11 -3 -6 1 -3 9 7 9 10 18 18 21 18 24 -3 36 0 31 9 -4 6 1 7 11 3 12 -4
15 -3 10 5 -5 8 -2 10 8 6 9 -3 16 -1 16 6 0 7 8 9 22 4 21 -6 21 -5 9 10 -13
15 -12 17 12 12 19 -3 24 -1 20 10 -3 8 1 15 11 15 30 3 34 4 43 13 5 5 3 6
-4 2 -7 -4 -13 -2 -13 3 0 6 7 11 15 11 8 0 15 5 15 10 0 6 7 10 15 10 8 0 15
7 15 15 0 8 5 15 11 15 5 0 7 -6 3 -12 -4 -7 2 -4 14 6 12 11 22 25 22 32 0 7
4 16 10 19 5 3 8 0 7 -7 -2 -7 -2 -10 0 -5 3 4 10 4 15 1 7 -5 8 -2 3 6 -5 8
1 20 16 32 13 11 18 17 12 13 -7 -3 -13 -1 -13 4 0 6 9 11 19 11 11 0 23 5 27
12 4 7 3 8 -4 4 -7 -4 -12 -2 -12 3 0 6 5 11 11 11 5 0 8 4 4 9 -3 5 0 13 6
17 8 4 9 3 5 -4 -4 -7 -4 -12 1 -12 4 0 13 11 20 25 7 16 7 23 1 18 -7 -4 -8
-1 -4 6 5 7 14 10 22 7 8 -3 13 -2 13 2 -4 28 2 52 13 46 8 -5 9 -2 4 11 -5
15 -4 16 9 5 14 -11 14 -10 6 13 -8 20 -7 26 2 24 7 -1 11 7 10 20 -2 13 2 22
8 20 6 -1 14 4 17 12 3 10 0 11 -9 5 -11 -6 -10 -3 1 12 8 10 20 22 25 26 6 5
5 8 -2 8 -7 0 -13 5 -13 11 0 5 5 7 11 3 7 -4 10 -1 7 7 -3 8 2 20 11 27 9 8
11 11 4 8 -7 -4 -11 1 -10 13 0 11 5 17 11 14 5 -4 7 1 3 10 -4 10 -1 17 5 17
9 0 9 3 1 11 -13 13 -5 51 9 43 6 -4 5 3 -1 14 -7 13 -7 23 -1 27 5 3 6 13 3
22 -5 12 -3 14 8 8 11 -6 12 -5 2 6 -7 7 -13 17 -13 22 0 4 6 5 13 1 9 -6 9
-4 -1 8 -9 12 -10 18 -2 23 7 4 8 11 1 18 -12 16 -12 29 2 45 6 7 6 12 1 11
-21 -4 -26 2 -14 16 10 12 10 15 0 15 -9 0 -9 4 1 17 8 9 9 14 3 10 -7 -4 -12
6 -13 26 -4 55 -4 57 -14 57 -5 0 -3 8 4 17 10 11 10 14 2 9 -8 -4 -14 -2 -15
6 -1 16 -5 31 -8 38 -2 5 -9 40 -12 67 -1 7 -5 10 -10 7 -4 -3 -9 0 -9 5 -2
12 -5 26 -9 39 -1 4 -2 10 -1 15 0 4 -4 7 -10 7 -6 0 -8 7 -5 16 3 8 2 12 -4
9 -12 -7 -31 35 -22 49 3 5 0 6 -5 3 -9 -6 -27 19 -23 31 0 1 -10 13 -22 26
-13 13 -32 34 -42 47 -10 13 -26 33 -35 43 -13 16 -13 18 -1 11 18 -11 39 -16
63 -16 9 0 17 -5 17 -10 0 -6 4 -8 9 -5 5 4 12 0 14 -6 4 -10 6 -9 6 1 1 11 6
10 22 -5 14 -12 23 -15 26 -8 2 6 15 9 28 6 14 -2 23 -8 20 -12 -3 -5 5 -6 17
-2 16 4 19 2 13 -9 -7 -11 -6 -12 7 -2 8 7 17 10 20 8 6 -6 60 -16 93 -18 11
0 23 -6 27 -11 5 -7 8 -6 8 3 0 11 3 11 17 0 9 -8 14 -9 10 -3 -3 6 0 11 8 11
8 0 12 -4 9 -8 -2 -4 16 -6 41 -5 35 2 45 -1 45 -13 0 -14 1 -14 10 -1 7 12
13 13 28 3 11 -6 24 -8 33 -3 8 5 19 4 28 -3 11 -9 13 -9 8 0 -8 13 30 12 52
-2 10 -5 12 -4 7 3 -4 7 -2 12 3 12 6 0 11 -5 11 -11 0 -8 4 -8 13 0 10 8 17
7 27 -2 10 -9 11 -9 6 1 -5 8 0 11 16 8 13 -2 32 1 43 7 19 9 19 9 5 -8 -14
-17 -13 -18 5 -11 11 5 28 8 38 8 9 0 15 3 12 7 -5 9 38 6 54 -3 5 -3 16 1 25
9 10 10 17 12 21 5 5 -8 11 -8 19 -1 9 7 17 7 26 -2 8 -7 10 -8 7 -1 -9 15 36
24 57 12 12 -7 14 -5 10 6 -6 15 11 17 33 3 9 -5 11 -3 7 6 -5 15 21 17 46 2
8 -4 12 -5 8 0 -12 12 11 35 29 28 8 -3 19 0 24 8 7 12 9 12 9 0 0 -10 3 -11
14 -2 11 9 15 9 19 -1 3 -8 6 -5 6 6 1 11 4 16 8 13 3 -4 13 -1 21 6 13 10 14
9 7 -2 -5 -8 7 -4 25 9 18 13 30 18 25 11 -5 -9 -3 -12 6 -9 8 3 13 11 11 17
-1 7 2 10 7 7 5 -4 12 -2 16 4 3 5 17 10 31 10 13 0 34 11 46 25 18 20 24 23
37 12 10 -8 13 -8 8 0 -9 15 19 43 43 43 10 0 22 5 26 12 5 7 3 8 -6 3 -9 -6
-11 -4 -6 4 5 7 15 10 23 7 11 -4 13 -2 9 9 -5 14 5 20 27 16 5 -1 6 3 3 8 -4
5 -2 12 4 16 6 4 8 11 5 16 -4 5 -1 9 5 9 7 0 9 7 6 16 -3 8 -2 12 4 9 15 -9
12 8 -6 34 -19 27 -43 25 -164 -14 -41 -13 -103 -29 -138 -35 -65 -11 -259
-12 -277 -2 -5 4 -30 8 -54 10 -24 1 -71 10 -105 18 -34 8 -68 16 -76 18 -8 2
-42 12 -75 21 -33 9 -70 19 -82 22 -13 3 -23 10 -23 15 0 5 -4 7 -9 4 -7 -5
-132 31 -186 54 -20 9 -41 14 -107 31 -91 22 -126 29 -168 35 -25 3 -63 10
-85 14 -22 5 -110 8 -195 6 -166 -4 -261 -22 -366 -70 -36 -17 -56 -21 -60
-14 -4 6 -2 8 4 4 6 -3 13 -2 17 4 3 5 2 10 -4 10 -11 0 -9 19 3 39 6 9 5 12
-2 7 -7 -4 -10 1 -9 14 1 11 6 20 12 20 5 0 4 4 -3 9 -8 4 -14 12 -14 16 0 4
6 12 14 16 10 7 10 9 1 9 -13 0 -13 26 0 48 5 7 3 12 -4 12 -8 0 -7 5 2 17 10
11 10 14 2 9 -7 -4 -13 -3 -13 3 0 5 5 13 10 16 7 4 7 13 0 26 -8 14 -7 19 2
19 9 0 9 3 -2 10 -13 9 -13 10 0 10 12 0 12 2 1 9 -9 6 -10 11 -2 15 6 4 11
13 11 19 0 7 -4 6 -11 -3 -9 -12 -10 -12 -5 3 3 10 6 21 6 23 0 3 5 2 11 -2 8
-5 8 -1 0 13 -6 11 -7 23 -3 27 3 4 0 11 -8 16 -8 6 -10 10 -4 10 7 0 10 25
10 68 -1 37 3 70 8 74 6 4 6 11 0 20 -13 17 -16 60 -3 53 5 -4 5 4 -1 19 -7
18 -6 26 1 26 7 0 8 5 3 13 -5 6 -9 24 -8 38 1 24 -5 28 -70 49 -39 13 -75 26
-81 29 -5 3 -14 6 -20 7 -57 12 -79 10 -153 -13z m-892 -1297 c0 -3 -4 -8 -10
-11 -5 -3 -10 -1 -10 4 0 6 5 11 10 11 6 0 10 -2 10 -4z"/>
<path d="M4796 2832 c-3 -5 1 -9 9 -9 8 0 12 4 9 9 -3 4 -7 8 -9 8 -2 0 -6 -4
-9 -8z"/>
<path d="M2673 1125 c0 -8 4 -12 9 -9 5 3 6 10 3 15 -9 13 -12 11 -12 -6z"/>
</g>
</svg>
